<svg width="1440" height="892" viewBox="0 0 1440 892" fill="none" xmlns="http://www.w3.org/2000/svg">
<g filter="url(#filter0_d_1_1956)">
<mask id="mask0_1_1956" style="mask-type:alpha" maskUnits="userSpaceOnUse" x="50" y="26" width="1340" height="823">
<rect x="50" y="26" width="1340" height="823" rx="30" fill="#B5CAFC"/>
</mask>
<g mask="url(#mask0_1_1956)">
<rect x="50" y="26" width="1340" height="823" rx="30" fill="#B5CAFC"/>
<path d="M276.726 461.311L3434.19 461.311C3493.83 461.311 3542.19 412.958 3542.19 353.311L3542.19 -221.941C3542.19 -281.588 3493.83 -329.941 3434.19 -329.941L-125.092 -329.941C-212.418 -329.941 -263.638 -231.685 -213.632 -160.096L188.187 415.157C208.39 444.079 241.446 461.311 276.726 461.311Z" fill="#96AAFE"/>
<path d="M646.012 61.0058C646.012 22.3459 677.352 -8.99414 716.012 -8.99414H1419.92C1483.99 -8.99414 1535.92 42.9408 1535.92 107.006V235.958C1535.92 260.258 1516.22 279.958 1491.92 279.958H762.012C697.947 279.958 646.012 228.023 646.012 163.958V61.0058Z" fill="#CFD7FB"/>
<path d="M908.27 614.902H-285.926C-345.573 614.902 -393.926 663.256 -393.926 722.902V830.849C-393.926 890.495 -345.573 938.849 -285.926 938.849H983.592C1070.89 938.849 1122.12 840.642 1072.16 769.047L996.839 661.101C976.64 632.153 943.569 614.902 908.27 614.902Z" fill="#CFD7FB"/>
</g>
</g>
<defs>
<filter id="filter0_d_1_1956" x="-30" y="-74" width="1540" height="1023" filterUnits="userSpaceOnUse" color-interpolation-filters="sRGB">
<feFlood flood-opacity="0" result="BackgroundImageFix"/>
<feColorMatrix in="SourceAlpha" type="matrix" values="0 0 0 0 0 0 0 0 0 0 0 0 0 0 0 0 0 0 127 0" result="hardAlpha"/>
<feOffset dx="20"/>
<feGaussianBlur stdDeviation="50"/>
<feComposite in2="hardAlpha" operator="out"/>
<feColorMatrix type="matrix" values="0 0 0 0 0 0 0 0 0 0 0 0 0 0 0 0 0 0 0.1 0"/>
<feBlend mode="normal" in2="BackgroundImageFix" result="effect1_dropShadow_1_1956"/>
<feBlend mode="normal" in="SourceGraphic" in2="effect1_dropShadow_1_1956" result="shape"/>
</filter>
</defs>
</svg>
